<?xml version="1.0" encoding="utf-8"?>
<!-- Generator: Adobe Illustrator 16.0.0, SVG Export Plug-In . SVG Version: 6.00 Build 0)  -->
<!DOCTYPE svg PUBLIC "-//W3C//DTD SVG 1.1//EN" "http://www.w3.org/Graphics/SVG/1.1/DTD/svg11.dtd">
<svg version="1.1" id="Layer_1" xmlns="http://www.w3.org/2000/svg" xmlns:xlink="http://www.w3.org/1999/xlink" x="0px" y="0px"
	 width="841.89px" height="595.28px" viewBox="0 0 841.89 595.28" enable-background="new 0 0 841.89 595.28" xml:space="preserve">
<path fill="#FFFFFF" d="M418.676,92.462c-113.444,0-205.41,91.962-205.41,205.409c0,110.089,86.615,199.94,195.41,205.157V341.44
	h-46.778v-53.568h46.778v-41.124v-1.131v-19.045c0,0-6.031-43.597,42.583-54.278c0.589-0.129,1.327-0.115,1.933-0.239h64.98v49.424
	h-42.346c0,0-13.697,1.671-12.756,18.082l-0.07,7.356v40.954h49.795v53.568h-49.795V498.43
	c92.129-20.273,161.085-102.341,161.085-200.559C624.086,184.425,532.115,92.462,418.676,92.462z"/>
</svg>
