<?xml version="1.0" encoding="utf-8"?>
<!-- Generator: Adobe Illustrator 17.0.0, SVG Export Plug-In . SVG Version: 6.00 Build 0)  -->
<!DOCTYPE svg PUBLIC "-//W3C//DTD SVG 1.1//EN" "http://www.w3.org/Graphics/SVG/1.1/DTD/svg11.dtd">
<svg version="1.1" id="Layer_1" xmlns="http://www.w3.org/2000/svg" xmlns:xlink="http://www.w3.org/1999/xlink" x="0px" y="0px"
	 width="1373.899px" height="522.853px" viewBox="0 0 1373.899 522.853" enable-background="new 0 0 1373.899 522.853"
	 xml:space="preserve">
<polyline fill="#53AEBE" points="-93.816,602.105 -93.819,601.058 -97.064,598.857 "/>
<g enable-background="new    ">
	<path fill="#242424" d="M254.11,218.549L413.459,463.93h0.848V218.549h38.142v302.594h-44.076L250.295,278.305h-0.847v242.838
		h-38.142V218.549H254.11z"/>
</g>
<g enable-background="new    ">
	<path fill="#242424" d="M498.228,303.301c6.072-19.071,15.184-35.95,27.335-50.645c12.145-14.687,27.262-26.414,45.347-35.175
		c18.078-8.754,39.129-13.138,63.146-13.138c24.011,0,45.062,4.384,63.146,13.138c18.078,8.761,33.196,20.488,45.347,35.175
		c12.145,14.694,21.256,31.573,27.335,50.645c6.072,19.071,9.112,38.924,9.112,59.544c0,20.627-3.04,40.473-9.112,59.544
		c-6.079,19.071-15.19,35.957-27.335,50.645c-12.151,14.693-27.269,26.349-45.347,34.963c-18.084,8.615-39.135,12.927-63.146,12.927
		c-24.018,0-45.069-4.312-63.146-12.927c-18.084-8.614-33.202-20.27-45.347-34.963c-12.151-14.688-21.263-31.573-27.335-50.645
		c-6.079-19.071-9.112-38.917-9.112-59.544C489.116,342.225,492.149,322.373,498.228,303.301z M535.31,407.98
		c3.953,14.833,10.171,28.183,18.647,40.049c8.476,11.867,19.349,21.402,32.633,28.606c13.277,7.205,29.097,10.808,47.466,10.808
		c18.362,0,34.182-3.603,47.465-10.808c13.277-7.204,24.157-16.739,32.633-28.606c8.476-11.866,14.688-25.216,18.647-40.049
		c3.954-14.833,5.934-29.878,5.934-45.135c0-15.257-1.98-30.302-5.934-45.135c-3.959-14.833-10.171-28.183-18.647-40.049
		c-8.476-11.866-19.356-21.402-32.633-28.606c-13.283-7.205-29.103-10.808-47.465-10.808c-18.369,0-34.189,3.603-47.466,10.808
		c-13.284,7.204-24.157,16.74-32.633,28.606c-8.476,11.866-14.694,25.216-18.647,40.049c-3.96,14.833-5.934,29.878-5.934,45.135
		C529.376,378.102,531.35,393.147,535.31,407.98z"/>
</g>
<g enable-background="new    ">
	<path fill="#242424" d="M869.167,218.549l95.355,254.28l95.779-254.28h55.094v302.594h-38.143V269.405h-0.847l-94.508,251.737
		h-34.328l-94.508-251.737h-0.848v251.737h-38.142V218.549H869.167z"/>
</g>
<g enable-background="new    ">
	<path fill="#242424" d="M1372.628,218.549v33.904h-168.673v96.202h157.23v33.904h-157.23v104.679h169.944v33.904h-210.205V218.549
		H1372.628z"/>
</g>
<path fill="#242424" d="M203.071,430.786l-1.723-113.527l-1.624-1.623l-1.624-1.625l-59.581-42.9l-0.499,250.742h112.04v-55.207
	C250.06,464.526,203.071,430.786,203.071,430.786z"/>
<path fill="#242424" d="M0.001,521.852h128.277V-1h-12.99v146.14l-53.302,24.947l-0.283,80.596c0,5.209-53.321,27.276-61.703,29.227
	L0.001,521.852L0.001,521.852z"/>
<polyline fill="#242424" points="211.348,317.259 211.344,316.211 208.1,314.011 "/>
<g enable-background="new    ">
	<path fill="#242424" d="M227.764,69.882v49.729h0.336c1.118-3.135,2.714-5.88,4.788-8.232c2.071-2.352,4.452-4.339,7.14-5.964
		c2.688-1.622,5.599-2.827,8.736-3.612c3.134-0.782,6.271-1.176,9.408-1.176c6.607,0,12.348,1.233,17.22,3.696
		c4.872,2.465,8.93,5.796,12.18,9.996c3.247,4.199,5.654,9.071,7.224,14.615c1.567,5.544,2.352,11.398,2.352,17.557
		c0,6.16-0.785,12.012-2.352,17.556c-1.569,5.544-3.977,10.416-7.224,14.616c-3.25,4.2-7.308,7.505-12.18,9.912
		s-10.613,3.611-17.22,3.611c-7.056,0-13.356-1.624-18.9-4.871c-5.544-3.248-9.55-7.896-12.012-13.944h-0.336v16.463h-9.744V69.882
		C217.18,69.882,227.764,69.882,227.764,69.882z M284.968,133.134c-1.066-4.423-2.746-8.371-5.04-11.844
		c-2.297-3.471-5.237-6.3-8.82-8.484c-3.585-2.184-7.896-3.275-12.936-3.275c-5.602,0-10.332,1.092-14.196,3.275
		c-3.864,2.185-7.001,5.014-9.408,8.484c-2.41,3.473-4.145,7.421-5.208,11.844c-1.065,4.426-1.596,8.878-1.596,13.356
		c0,4.48,0.53,8.933,1.596,13.355c1.063,4.426,2.798,8.374,5.208,11.845c2.407,3.473,5.544,6.3,9.408,8.483
		c3.864,2.185,8.594,3.276,14.196,3.276c5.04,0,9.351-1.092,12.936-3.276c3.583-2.184,6.523-5.011,8.82-8.483
		c2.294-3.471,3.974-7.419,5.04-11.845c1.063-4.423,1.596-8.875,1.596-13.355C286.564,142.012,286.031,137.56,284.968,133.134z"/>
	<path fill="#242424" d="M323.354,103.146v20.328h0.336c2.688-7.056,6.859-12.486,12.516-16.296
		c5.654-3.806,12.403-5.544,20.244-5.208v10.584c-4.817-0.223-9.185,0.42-13.104,1.933c-3.922,1.512-7.308,3.669-10.164,6.468
		c-2.856,2.801-5.069,6.132-6.636,9.996c-1.57,3.864-2.352,8.093-2.352,12.684v46.2H313.61v-86.688L323.354,103.146L323.354,103.146
		z"/>
	<path fill="#242424" d="M368.712,116.586c1.79-3.696,4.226-6.72,7.308-9.072c3.08-2.352,6.691-4.087,10.836-5.208
		c4.142-1.118,8.736-1.68,13.776-1.68c3.806,0,7.615,0.365,11.424,1.092c3.806,0.729,7.224,2.101,10.248,4.116
		s5.486,4.846,7.392,8.484c1.903,3.641,2.856,8.373,2.856,14.195v46.032c0,4.258,2.071,6.384,6.216,6.384
		c1.231,0,2.352-0.223,3.36-0.672v8.904c-1.234,0.226-2.326,0.394-3.276,0.504c-0.953,0.113-2.158,0.168-3.612,0.168
		c-2.688,0-4.846-0.362-6.468-1.092c-1.625-0.728-2.885-1.765-3.78-3.108c-0.897-1.344-1.486-2.939-1.764-4.788
		c-0.281-1.848-0.42-3.89-0.42-6.132h-0.336c-1.906,2.801-3.838,5.292-5.796,7.477c-1.961,2.184-4.145,4.005-6.552,5.46
		c-2.41,1.456-5.153,2.575-8.232,3.359c-3.082,0.782-6.749,1.176-11.004,1.176c-4.032,0-7.812-0.478-11.34-1.428
		s-6.61-2.462-9.24-4.536c-2.633-2.071-4.704-4.704-6.216-7.896s-2.268-6.973-2.268-11.34c0-6.049,1.344-10.778,4.032-14.196
		c2.688-3.415,6.242-6.02,10.668-7.812c4.423-1.79,9.408-3.05,14.952-3.779c5.544-0.728,11.172-1.429,16.884-2.101
		c2.239-0.223,4.2-0.504,5.88-0.84s3.079-0.924,4.2-1.764c1.118-0.84,1.987-1.987,2.604-3.444c0.614-1.454,0.924-3.359,0.924-5.712
		c0-3.583-0.588-6.523-1.764-8.82c-1.176-2.294-2.801-4.115-4.872-5.46c-2.074-1.344-4.48-2.268-7.224-2.771
		c-2.746-0.504-5.686-0.756-8.82-0.756c-6.72,0-12.208,1.596-16.464,4.788c-4.258,3.191-6.497,8.315-6.72,15.372H365.52
		C365.856,124.651,366.919,120.282,368.712,116.586z M421.632,142.458c-0.672,1.233-1.961,2.129-3.864,2.688
		c-1.906,0.562-3.585,0.953-5.04,1.177c-4.48,0.784-9.101,1.485-13.86,2.1c-4.762,0.617-9.101,1.541-13.02,2.772
		c-3.922,1.233-7.14,2.997-9.66,5.292c-2.52,2.297-3.78,5.572-3.78,9.828c0,2.688,0.53,5.068,1.596,7.14
		c1.063,2.073,2.491,3.864,4.284,5.376c1.791,1.512,3.864,2.662,6.216,3.444c2.352,0.784,4.759,1.176,7.224,1.176
		c4.032,0,7.896-0.614,11.592-1.849c3.696-1.23,6.914-3.023,9.66-5.376c2.743-2.352,4.927-5.208,6.552-8.567
		c1.622-3.36,2.436-7.166,2.436-11.424v-13.776L421.632,142.458L421.632,142.458z"/>
	<path fill="#242424" d="M464.135,103.146v14.952h0.336c2.016-5.263,5.599-9.491,10.752-12.684
		c5.15-3.192,10.807-4.788,16.968-4.788c6.048,0,11.114,0.785,15.204,2.352c4.087,1.57,7.363,3.78,9.828,6.637
		c2.463,2.855,4.201,6.357,5.209,10.5c1.008,4.145,1.512,8.794,1.512,13.943v55.776H513.36v-54.096
		c0-3.696-0.336-7.141-1.008-10.332c-0.672-3.192-1.848-5.964-3.528-8.316s-3.948-4.2-6.804-5.544s-6.413-2.016-10.668-2.016
		c-4.258,0-8.038,0.756-11.34,2.268c-3.305,1.512-6.106,3.586-8.4,6.216c-2.297,2.633-4.09,5.771-5.376,9.408
		c-1.289,3.641-1.99,7.589-2.1,11.844v50.568h-10.584v-86.688H464.135z"/>
	<path fill="#242424" d="M610.462,189.834V173.37h-0.336c-1.121,2.801-2.772,5.376-4.956,7.728
		c-2.185,2.353-4.678,4.342-7.477,5.964c-2.801,1.625-5.796,2.883-8.988,3.78c-3.191,0.896-6.357,1.344-9.491,1.344
		c-6.61,0-12.349-1.204-17.221-3.611s-8.933-5.712-12.18-9.912c-3.25-4.2-5.657-9.072-7.224-14.616
		c-1.57-5.544-2.353-11.396-2.353-17.556c0-6.158,0.782-12.013,2.353-17.557c1.566-5.544,3.974-10.416,7.224-14.615
		c3.247-4.2,7.308-7.531,12.18-9.996c4.872-2.463,10.61-3.696,17.221-3.696c3.247,0,6.41,0.394,9.491,1.176
		c3.079,0.785,5.965,1.99,8.652,3.612c2.688,1.625,5.066,3.612,7.14,5.964c2.071,2.353,3.668,5.098,4.788,8.232h0.336V69.882h10.584
		v119.952H610.462z M552.418,159.846c1.062,4.426,2.742,8.374,5.039,11.845c2.295,3.473,5.234,6.3,8.82,8.483
		c3.583,2.185,7.896,3.276,12.937,3.276c5.599,0,10.332-1.092,14.195-3.276c3.864-2.184,6.999-5.011,9.408-8.483
		c2.407-3.471,4.143-7.419,5.208-11.845c1.063-4.423,1.596-8.875,1.596-13.355c0-4.479-0.532-8.931-1.596-13.356
		c-1.065-4.423-2.801-8.371-5.208-11.844c-2.409-3.471-5.544-6.3-9.408-8.484c-3.863-2.184-8.597-3.275-14.195-3.275
		c-5.04,0-9.354,1.092-12.937,3.275c-3.586,2.185-6.525,5.014-8.82,8.484c-2.297,3.473-3.977,7.421-5.039,11.844
		c-1.066,4.426-1.597,8.878-1.597,13.356C550.821,150.971,551.352,155.423,552.418,159.846z"/>
	<path fill="#242424" d="M689.251,116.586c1.791-3.696,4.227-6.72,7.309-9.072c3.079-2.352,6.69-4.087,10.836-5.208
		c4.142-1.118,8.735-1.68,13.775-1.68c3.807,0,7.615,0.365,11.425,1.092c3.806,0.729,7.224,2.101,10.248,4.116
		c3.023,2.016,5.485,4.846,7.392,8.484c1.903,3.641,2.855,8.373,2.855,14.195v46.032c0,4.258,2.071,6.384,6.217,6.384
		c1.23,0,2.352-0.223,3.359-0.672v8.904c-1.233,0.226-2.325,0.394-3.275,0.504c-0.953,0.113-2.158,0.168-3.612,0.168
		c-2.688,0-4.846-0.362-6.468-1.092c-1.625-0.728-2.885-1.765-3.78-3.108c-0.897-1.344-1.485-2.939-1.764-4.788
		c-0.281-1.848-0.42-3.89-0.42-6.132h-0.336c-1.906,2.801-3.838,5.292-5.797,7.477c-1.96,2.184-4.145,4.005-6.552,5.46
		c-2.409,1.456-5.152,2.575-8.231,3.359c-3.082,0.782-6.749,1.176-11.004,1.176c-4.032,0-7.812-0.478-11.341-1.428
		c-3.527-0.95-6.609-2.462-9.239-4.536c-2.633-2.071-4.704-4.704-6.217-7.896c-1.512-3.192-2.268-6.973-2.268-11.34
		c0-6.049,1.344-10.778,4.032-14.196c2.688-3.415,6.242-6.02,10.668-7.812c4.423-1.79,9.408-3.05,14.952-3.779
		c5.544-0.728,11.172-1.429,16.884-2.101c2.239-0.223,4.2-0.504,5.88-0.84s3.079-0.924,4.2-1.764
		c1.118-0.84,1.987-1.987,2.604-3.444c0.614-1.454,0.924-3.359,0.924-5.712c0-3.583-0.588-6.523-1.764-8.82
		c-1.176-2.294-2.801-4.115-4.872-5.46c-2.073-1.344-4.48-2.268-7.224-2.771c-2.746-0.504-5.686-0.756-8.82-0.756
		c-6.72,0-12.209,1.596-16.464,4.788c-4.258,3.191-6.497,8.315-6.72,15.372h-10.584
		C686.396,124.651,687.458,120.282,689.251,116.586z M742.171,142.458c-0.672,1.233-1.961,2.129-3.863,2.688
		c-1.906,0.562-3.586,0.953-5.04,1.177c-4.481,0.784-9.102,1.485-13.86,2.1c-4.762,0.617-9.101,1.541-13.02,2.772
		c-3.922,1.233-7.141,2.997-9.66,5.292c-2.521,2.297-3.78,5.572-3.78,9.828c0,2.688,0.53,5.068,1.596,7.14
		c1.063,2.073,2.491,3.864,4.284,5.376c1.79,1.512,3.864,2.662,6.216,3.444c2.353,0.784,4.76,1.176,7.225,1.176
		c4.031,0,7.896-0.614,11.592-1.849c3.696-1.23,6.914-3.023,9.66-5.376c2.743-2.352,4.927-5.208,6.552-8.567
		c1.622-3.36,2.436-7.166,2.436-11.424v-13.776L742.171,142.458L742.171,142.458z"/>
	<path fill="#242424" d="M784.003,103.146v20.328h0.336c2.688-7.056,6.859-12.486,12.516-16.296
		c5.654-3.806,12.403-5.544,20.244-5.208v10.584c-4.816-0.223-9.185,0.42-13.104,1.933c-3.922,1.512-7.309,3.669-10.164,6.468
		c-2.856,2.801-5.069,6.132-6.637,9.996c-1.569,3.864-2.352,8.093-2.352,12.684v46.2h-10.584v-86.688L784.003,103.146
		L784.003,103.146z"/>
	<path fill="#242424" d="M877.242,115.074c-3.922-3.696-9.408-5.544-16.464-5.544c-5.04,0-9.466,1.065-13.272,3.191
		c-3.809,2.129-6.972,4.93-9.491,8.4c-2.521,3.473-4.426,7.421-5.713,11.844c-1.288,4.426-1.932,8.933-1.932,13.524
		c0,4.594,0.644,9.101,1.932,13.523c1.287,4.426,3.192,8.374,5.713,11.845c2.52,3.473,5.683,6.273,9.491,8.399
		c3.807,2.129,8.232,3.192,13.272,3.192c3.247,0,6.326-0.614,9.24-1.849c2.911-1.23,5.486-2.939,7.728-5.124
		c2.239-2.184,4.087-4.787,5.544-7.812c1.454-3.024,2.353-6.326,2.688-9.912h10.584c-1.457,10.529-5.321,18.732-11.592,24.612
		c-6.274,5.88-14.338,8.819-24.192,8.819c-6.609,0-12.461-1.204-17.556-3.611c-5.099-2.407-9.382-5.684-12.853-9.828
		c-3.473-4.143-6.105-8.988-7.896-14.532c-1.793-5.544-2.688-11.45-2.688-17.724c0-6.271,0.896-12.181,2.688-17.725
		c1.79-5.544,4.423-10.387,7.896-14.531c3.471-4.143,7.754-7.447,12.853-9.912c5.095-2.463,10.946-3.696,17.556-3.696
		c9.295,0,17.162,2.465,23.604,7.392c6.439,4.93,10.274,12.377,11.509,22.345h-10.584
		C883.85,123.868,881.161,118.77,877.242,115.074z"/>
	<path fill="#242424" d="M921.762,69.882v48.216h0.336c2.016-5.263,5.599-9.491,10.752-12.684c5.15-3.192,10.808-4.788,16.968-4.788
		c6.048,0,11.114,0.785,15.204,2.352c4.087,1.57,7.363,3.78,9.828,6.637c2.462,2.855,4.2,6.357,5.208,10.5
		c1.008,4.145,1.512,8.794,1.512,13.943v55.776h-10.584v-54.096c0-3.696-0.336-7.141-1.008-10.332
		c-0.672-3.192-1.848-5.964-3.528-8.316s-3.947-4.2-6.804-5.544c-2.855-1.344-6.413-2.016-10.668-2.016
		c-4.258,0-8.038,0.756-11.34,2.268c-3.305,1.512-6.105,3.586-8.4,6.216c-2.297,2.633-4.09,5.771-5.376,9.408
		c-1.289,3.641-1.989,7.589-2.1,11.844v50.568h-10.584V69.882C911.178,69.882,921.762,69.882,921.762,69.882z"/>
	<path fill="#242424" d="M1012.312,69.882V86.85h-10.584V69.882H1012.312z M1012.312,103.146v86.688h-10.584v-86.688H1012.312z"/>
	<path fill="#242424" d="M1067.079,103.146v8.904h-17.64v58.464c0,3.474,0.476,6.19,1.428,8.148c0.95,1.961,3.331,3.053,7.141,3.275
		c3.023,0,6.048-0.168,9.071-0.504v8.904c-1.569,0-3.137,0.056-4.703,0.168c-1.57,0.11-3.138,0.168-4.704,0.168
		c-7.057,0-11.986-1.37-14.784-4.116c-2.801-2.743-4.145-7.812-4.032-15.204V112.05h-15.12v-8.904h15.12V77.107h10.584v26.039
		H1067.079z"/>
	<path fill="#242424" d="M1090.178,161.191c1.063,4.089,2.772,7.757,5.124,11.004c2.353,3.249,5.318,5.938,8.904,8.063
		c3.583,2.129,7.896,3.192,12.937,3.192c7.728,0,13.775-2.017,18.144-6.048c4.368-4.032,7.392-9.408,9.072-16.128h10.584
		c-2.242,9.856-6.358,17.472-12.349,22.848c-5.992,5.376-14.477,8.063-25.451,8.063c-6.833,0-12.742-1.204-17.725-3.611
		c-4.984-2.407-9.046-5.712-12.18-9.912c-3.137-4.2-5.46-9.072-6.972-14.616c-1.513-5.544-2.269-11.396-2.269-17.556
		c0-5.712,0.756-11.312,2.269-16.8c1.512-5.486,3.835-10.388,6.972-14.7c3.134-4.311,7.195-7.783,12.18-10.416
		c4.982-2.631,10.892-3.948,17.725-3.948c6.942,0,12.878,1.401,17.808,4.2c4.927,2.801,8.931,6.468,12.012,11.004
		c3.079,4.536,5.292,9.744,6.636,15.624c1.345,5.88,1.903,11.844,1.681,17.892h-66.696
		C1088.582,153.155,1089.112,157.103,1090.178,161.191z M1142.594,128.85c-1.288-3.695-3.107-6.972-5.46-9.827
		c-2.352-2.856-5.208-5.15-8.567-6.889c-3.36-1.735-7.169-2.604-11.424-2.604c-4.368,0-8.232,0.868-11.593,2.604
		c-3.359,1.738-6.216,4.032-8.567,6.889c-2.353,2.855-4.229,6.16-5.628,9.911c-1.402,3.754-2.326,7.589-2.772,11.509h56.112
		C1144.581,136.41,1143.881,132.546,1142.594,128.85z"/>
	<path fill="#242424" d="M1222.646,115.074c-3.922-3.696-9.408-5.544-16.464-5.544c-5.04,0-9.466,1.065-13.272,3.191
		c-3.809,2.129-6.972,4.93-9.491,8.4c-2.521,3.473-4.426,7.421-5.713,11.844c-1.288,4.426-1.932,8.933-1.932,13.524
		c0,4.594,0.644,9.101,1.932,13.523c1.287,4.426,3.192,8.374,5.713,11.845c2.52,3.473,5.683,6.273,9.491,8.399
		c3.807,2.129,8.232,3.192,13.272,3.192c3.247,0,6.326-0.614,9.24-1.849c2.911-1.23,5.486-2.939,7.728-5.124
		c2.239-2.184,4.087-4.787,5.544-7.812c1.454-3.024,2.353-6.326,2.688-9.912h10.584c-1.457,10.529-5.321,18.732-11.592,24.612
		c-6.274,5.88-14.338,8.819-24.192,8.819c-6.609,0-12.461-1.204-17.556-3.611c-5.099-2.407-9.382-5.684-12.853-9.828
		c-3.473-4.143-6.105-8.988-7.896-14.532c-1.793-5.544-2.688-11.45-2.688-17.724c0-6.271,0.896-12.181,2.688-17.725
		c1.79-5.544,4.423-10.387,7.896-14.531c3.471-4.143,7.754-7.447,12.853-9.912c5.095-2.463,10.946-3.696,17.556-3.696
		c9.295,0,17.162,2.465,23.604,7.392c6.439,4.93,10.274,12.377,11.509,22.345h-10.584
		C1229.253,123.868,1226.565,118.77,1222.646,115.074z"/>
	<path fill="#242424" d="M1291.189,103.146v8.904h-17.64v58.464c0,3.474,0.476,6.19,1.428,8.148c0.95,1.961,3.331,3.053,7.141,3.275
		c3.023,0,6.048-0.168,9.071-0.504v8.904c-1.569,0-3.137,0.056-4.703,0.168c-1.57,0.11-3.138,0.168-4.704,0.168
		c-7.057,0-11.986-1.37-14.784-4.116c-2.801-2.743-4.145-7.812-4.032-15.204V112.05h-15.12v-8.904h15.12V77.107h10.584v26.039
		H1291.189z"/>
	<path fill="#242424" d="M1356.371,120.03c-1.233-2.407-2.885-4.395-4.956-5.964c-2.073-1.567-4.451-2.715-7.14-3.444
		c-2.688-0.728-5.544-1.092-8.568-1.092c-2.352,0-4.732,0.252-7.14,0.756c-2.409,0.504-4.62,1.344-6.636,2.52
		c-2.017,1.177-3.641,2.717-4.872,4.62c-1.233,1.906-1.848,4.258-1.848,7.057c0,2.352,0.588,4.342,1.764,5.964
		c1.176,1.625,2.659,2.997,4.452,4.115c1.79,1.121,3.751,2.045,5.88,2.772c2.126,0.729,4.087,1.317,5.88,1.764l14.112,3.192
		c3.023,0.449,6.019,1.26,8.987,2.436c2.967,1.177,5.6,2.717,7.896,4.62c2.294,1.906,4.171,4.258,5.628,7.057
		c1.454,2.801,2.184,6.105,2.184,9.912c0,4.703-1.065,8.709-3.191,12.012c-2.129,3.305-4.846,5.993-8.148,8.063
		c-3.305,2.074-7.029,3.555-11.172,4.452c-4.145,0.896-8.231,1.344-12.264,1.344c-10.193,0-18.454-2.406-24.78-7.224
		c-6.329-4.814-9.94-12.542-10.836-23.184h10.584c0.446,7.169,3.05,12.573,7.812,16.212c4.76,3.641,10.669,5.46,17.725,5.46
		c2.575,0,5.234-0.278,7.979-0.84c2.743-0.56,5.292-1.513,7.645-2.856c2.352-1.344,4.284-3.05,5.796-5.124
		c1.512-2.071,2.268-4.62,2.268-7.644c0-2.575-0.532-4.73-1.596-6.469c-1.065-1.734-2.494-3.191-4.284-4.367
		c-1.793-1.177-3.838-2.155-6.132-2.94c-2.297-0.782-4.62-1.454-6.972-2.016l-13.608-3.024c-3.473-0.896-6.665-1.932-9.576-3.108
		c-2.913-1.176-5.46-2.63-7.644-4.367c-2.185-1.735-3.893-3.864-5.124-6.385c-1.233-2.52-1.848-5.628-1.848-9.323
		c0-4.368,0.979-8.119,2.939-11.256c1.958-3.135,4.507-5.654,7.645-7.561c3.134-1.903,6.636-3.302,10.5-4.2
		c3.863-0.895,7.698-1.344,11.508-1.344c4.368,0,8.426,0.562,12.18,1.68c3.751,1.121,7.056,2.856,9.912,5.208
		c2.856,2.353,5.124,5.266,6.804,8.736c1.681,3.473,2.631,7.56,2.856,12.264h-10.584
		C1358.275,125.267,1357.603,122.44,1356.371,120.03z"/>
</g>
</svg>
