<?xml version="1.0" encoding="utf-8"?>
<!-- Generator: Adobe Illustrator 17.0.0, SVG Export Plug-In . SVG Version: 6.00 Build 0)  -->
<!DOCTYPE svg PUBLIC "-//W3C//DTD SVG 1.1//EN" "http://www.w3.org/Graphics/SVG/1.1/DTD/svg11.dtd">
<svg version="1.1" id="Layer_1" xmlns="http://www.w3.org/2000/svg" xmlns:xlink="http://www.w3.org/1999/xlink" x="0px" y="0px"
	 width="1373.899px" height="522.852px" viewBox="0 0 1373.899 522.852" enable-background="new 0 0 1373.899 522.852"
	 xml:space="preserve">
<polyline fill="#53AEBE" points="-85.13,603.105 -85.133,602.058 -88.378,599.857 "/>
<rect x="187.36" y="219.554" fill="none" width="330.04" height="303.299"/>
<rect x="481.697" y="212.554" fill="none" width="330.04" height="303.299"/>
<rect x="788.856" y="219.554" fill="none" width="392.771" height="303.299"/>
<rect x="1139.323" y="219.554" fill="none" width="392.771" height="303.299"/>
<g>
	<g enable-background="new    ">
		<path fill="#FFFFFF" d="M253.11,218.549L412.459,463.93h0.848V218.549h38.142v302.594h-44.076L249.295,278.305h-0.847v242.838
			h-38.142V218.549H253.11z"/>
	</g>
	<g enable-background="new    ">
		<path fill="#FFFFFF" d="M497.228,303.301c6.072-19.071,15.184-35.95,27.335-50.645c12.145-14.687,27.262-26.414,45.347-35.175
			c18.078-8.754,39.129-13.138,63.146-13.138c24.011,0,45.062,4.384,63.146,13.138c18.078,8.761,33.196,20.488,45.347,35.175
			c12.145,14.694,21.256,31.573,27.335,50.645c6.072,19.071,9.112,38.924,9.112,59.544c0,20.627-3.04,40.473-9.112,59.544
			c-6.079,19.071-15.19,35.957-27.335,50.645c-12.151,14.693-27.269,26.349-45.347,34.963
			c-18.084,8.615-39.135,12.927-63.146,12.927c-24.018,0-45.069-4.312-63.146-12.927c-18.084-8.614-33.202-20.27-45.347-34.963
			c-12.151-14.688-21.263-31.573-27.335-50.645c-6.079-19.071-9.112-38.917-9.112-59.544
			C488.116,342.225,491.149,322.373,497.228,303.301z M534.31,407.98c3.953,14.833,10.171,28.183,18.647,40.049
			c8.476,11.867,19.349,21.402,32.633,28.606c13.277,7.205,29.097,10.808,47.466,10.808c18.362,0,34.182-3.603,47.465-10.808
			c13.277-7.204,24.157-16.739,32.633-28.606c8.476-11.866,14.688-25.216,18.647-40.049c3.954-14.833,5.934-29.878,5.934-45.135
			c0-15.257-1.98-30.302-5.934-45.135c-3.959-14.833-10.171-28.183-18.647-40.049c-8.476-11.866-19.356-21.402-32.633-28.606
			c-13.283-7.205-29.103-10.808-47.465-10.808c-18.369,0-34.189,3.603-47.466,10.808c-13.284,7.204-24.157,16.74-32.633,28.606
			c-8.476,11.866-14.694,25.216-18.647,40.049c-3.96,14.833-5.934,29.878-5.934,45.135
			C528.376,378.102,530.35,393.147,534.31,407.98z"/>
	</g>
	<g enable-background="new    ">
		<path fill="#FFFFFF" d="M868.167,218.549l95.355,254.28l95.779-254.28h55.094v302.594h-38.143V269.405h-0.847l-94.508,251.737
			h-34.328l-94.508-251.737h-0.848v251.737h-38.142V218.549H868.167z"/>
	</g>
	<g enable-background="new    ">
		<path fill="#FFFFFF" d="M1371.628,218.549v33.904h-168.673v96.202h157.23v33.904h-157.23v104.679h169.944v33.904h-210.205V218.549
			H1371.628z"/>
	</g>
	<path fill="#FFFFFF" d="M202.071,430.786l-1.723-113.527l-1.624-1.623l-1.624-1.625l-59.581-42.9l-0.499,250.742h112.04v-55.207
		C249.06,464.526,202.071,430.786,202.071,430.786z"/>
	<path fill="#FFFFFF" d="M-0.999,521.852h128.277V-1h-12.99v146.14l-53.302,24.947l-0.283,80.596
		c0,5.209-53.321,27.276-61.703,29.227L-0.999,521.852L-0.999,521.852z"/>
</g>
<polyline points="220.034,318.259 220.03,317.211 216.786,315.011 "/>
</svg>
