<?xml version="1.0" encoding="utf-8"?>
<!-- Generator: Adobe Illustrator 17.0.0, SVG Export Plug-In . SVG Version: 6.00 Build 0)  -->
<!DOCTYPE svg PUBLIC "-//W3C//DTD SVG 1.1//EN" "http://www.w3.org/Graphics/SVG/1.1/DTD/svg11.dtd">
<svg version="1.1" id="Layer_1" xmlns="http://www.w3.org/2000/svg" xmlns:xlink="http://www.w3.org/1999/xlink" x="0px" y="0px"
	 width="1373.899px" height="522.852px" viewBox="-1513.008 -182.23 1373.899 522.852"
	 enable-background="new -1513.008 -182.23 1373.899 522.852" xml:space="preserve">
<polyline fill="#53AEBE" points="-1606.825,420.875 -1606.828,419.828 -1610.073,417.627 "/>
<rect x="-1334.335" y="37.324" fill="none" width="330.04" height="303.299"/>
<rect x="-1039.998" y="30.324" fill="none" width="330.04" height="303.299"/>
<rect x="-732.839" y="37.324" fill="none" width="392.771" height="303.299"/>
<rect x="-382.372" y="37.324" fill="none" width="392.771" height="303.299"/>
<g>
	<g enable-background="new    ">
		<path d="M-1258.899,37.319l159.349,245.381h0.848V37.319h38.142v302.594h-44.076l-158.078-242.838h-0.847v242.838h-38.142V37.319
			H-1258.899z"/>
	</g>
	<g enable-background="new    ">
		<path d="M-1014.781,122.071c6.072-19.071,15.184-35.95,27.335-50.645c12.145-14.687,27.262-26.414,45.347-35.175
			c18.078-8.754,39.129-13.138,63.146-13.138c24.011,0,45.062,4.384,63.146,13.138c18.078,8.761,33.196,20.488,45.347,35.175
			c12.145,14.694,21.256,31.573,27.335,50.645c6.072,19.071,9.112,38.924,9.112,59.544c0,20.627-3.04,40.473-9.112,59.544
			c-6.079,19.071-15.19,35.957-27.335,50.645c-12.151,14.693-27.269,26.349-45.347,34.963
			c-18.084,8.615-39.135,12.927-63.146,12.927c-24.018,0-45.069-4.312-63.146-12.927c-18.084-8.614-33.202-20.27-45.347-34.963
			c-12.151-14.688-21.263-31.573-27.335-50.645c-6.079-19.071-9.112-38.917-9.112-59.544
			C-1023.893,160.995-1020.86,141.143-1014.781,122.071z M-977.699,226.75c3.953,14.833,10.171,28.183,18.647,40.049
			c8.476,11.867,19.349,21.402,32.633,28.606c13.277,7.205,29.097,10.808,47.466,10.808c18.362,0,34.182-3.603,47.465-10.808
			c13.277-7.204,24.157-16.739,32.633-28.606c8.476-11.866,14.688-25.216,18.647-40.049c3.954-14.833,5.934-29.878,5.934-45.135
			s-1.98-30.302-5.934-45.135c-3.959-14.833-10.171-28.183-18.647-40.049s-19.356-21.402-32.633-28.606
			c-13.283-7.205-29.103-10.808-47.465-10.808c-18.369,0-34.189,3.603-47.466,10.808c-13.284,7.204-24.157,16.74-32.633,28.606
			s-14.694,25.216-18.647,40.049c-3.96,14.833-5.934,29.878-5.934,45.135S-981.659,211.917-977.699,226.75z"/>
	</g>
	<g enable-background="new    ">
		<path d="M-643.842,37.319l95.355,254.28l95.779-254.28h55.094v302.594h-38.143V88.175h-0.847l-94.508,251.737h-34.328
			l-94.508-251.737h-0.848v251.737h-38.142V37.319H-643.842z"/>
	</g>
	<g enable-background="new    ">
		<path d="M-140.381,37.319v33.904h-168.673v96.202h157.23v33.904h-157.23v104.679h169.944v33.904h-210.205V37.319H-140.381z"/>
	</g>
	<path d="M-1309.938,249.556l-1.723-113.527l-1.624-1.623l-1.624-1.625l-59.581-42.9l-0.499,250.742h112.04v-55.207
		C-1262.949,283.296-1309.938,249.556-1309.938,249.556z"/>
	<path d="M-1513.008,340.622h128.277V-182.23h-12.99v146.14l-53.302,24.947l-0.283,80.596c0,5.209-53.321,27.276-61.703,29.227
		L-1513.008,340.622L-1513.008,340.622z"/>
</g>
<polyline points="-1301.661,136.029 -1301.665,134.981 -1304.909,132.781 "/>
</svg>
