<?xml version="1.0" encoding="utf-8"?>
<!-- Generator: Adobe Illustrator 17.0.0, SVG Export Plug-In . SVG Version: 6.00 Build 0)  -->
<!DOCTYPE svg PUBLIC "-//W3C//DTD SVG 1.1//EN" "http://www.w3.org/Graphics/SVG/1.1/DTD/svg11.dtd">
<svg version="1.1" id="Layer_1" xmlns="http://www.w3.org/2000/svg" xmlns:xlink="http://www.w3.org/1999/xlink" x="0px" y="0px"
	 width="595.28px" height="841.89px" viewBox="0 0 595.28 841.89" enable-background="new 0 0 595.28 841.89" xml:space="preserve">
<polyline fill-rule="evenodd" clip-rule="evenodd" fill="#53AEBE" points="-1606.825,420.875 -1606.828,419.828 -1610.073,417.627 
	"/>
<rect x="-1334.335" y="37.324" fill-rule="evenodd" clip-rule="evenodd" fill="none" width="330.04" height="303.299"/>
<text transform="matrix(1 0 0 1 -1334.3354 339.9125)" font-family="'HelveticaNeue'" font-size="423.8006">N</text>
<rect x="-1039.998" y="30.324" fill-rule="evenodd" clip-rule="evenodd" fill="none" width="330.04" height="303.299"/>
<text transform="matrix(1 0 0 1 -1039.9976 332.9125)" font-family="'HelveticaNeue'" font-size="423.8006">O</text>
<rect x="-732.839" y="37.324" fill-rule="evenodd" clip-rule="evenodd" fill="none" width="392.771" height="303.299"/>
<text transform="matrix(1 0 0 1 -732.8398 339.9125)" font-family="'HelveticaNeue'" font-size="423.8006">M</text>
<rect x="-382.372" y="37.324" fill-rule="evenodd" clip-rule="evenodd" fill="none" width="392.771" height="303.299"/>
<text transform="matrix(1 0 0 1 -382.3711 339.9125)" font-family="'HelveticaNeue'" font-size="423.8006">E</text>
<path fill-rule="evenodd" clip-rule="evenodd" d="M-1309.938,249.556l-1.723-113.527l-1.624-1.623l-1.624-1.625l-59.581-42.9
	l-0.499,250.742h112.04v-55.207C-1262.949,283.296-1309.938,249.556-1309.938,249.556z"/>
<path fill-rule="evenodd" clip-rule="evenodd" d="M-1513.008,340.622h128.277v-522.852h-12.99v146.14l-53.302,24.947l-0.283,80.596
	c0,5.209-53.321,27.276-61.703,29.227V340.622L-1513.008,340.622z"/>
<polyline fill-rule="evenodd" clip-rule="evenodd" points="-1301.661,136.029 -1301.665,134.981 -1304.909,132.781 "/>
<text transform="matrix(1 0 0 1 -1305.9092 8.6044)" font-family="'HelveticaNeue-Light'" font-size="168">brand architects</text>
</svg>
