<?xml version="1.0" encoding="utf-8"?>
<!-- Generator: Adobe Illustrator 16.0.0, SVG Export Plug-In . SVG Version: 6.00 Build 0)  -->
<!DOCTYPE svg PUBLIC "-//W3C//DTD SVG 1.1//EN" "http://www.w3.org/Graphics/SVG/1.1/DTD/svg11.dtd">
<svg version="1.1" id="Layer_1" xmlns="http://www.w3.org/2000/svg" xmlns:xlink="http://www.w3.org/1999/xlink" x="0px" y="0px"
	 width="841.89px" height="595.28px" viewBox="0 0 841.89 595.28" enable-background="new 0 0 841.89 595.28" xml:space="preserve">
<path fill="#FFFFFF" d="M439.862,71.311c-126.136,0-228.392,102.255-228.392,228.395c0,92.878,55.477,172.748,135.067,208.441
	c2.596-25.104,11.454-99.795,29.361-150.768c0,0,4.192-20.138-0.84-31.041c-5.035-10.903-9.227-83.888,42.783-83.053
	c52.011,0.836,8.387,106.544,8.387,106.544s-19.711,51.381,42.578,52.01c62.288,0.628,78.017-115.768,62.288-156.038
	c-15.731-40.267-95.006-84.309-161.072-29.571c-66.063,54.739-33.974,127.724-23.907,139.049c0,0,7.55,6.606-2.202,25.48
	c-9.753,18.877-34.606-14.469-38.381-19.188c-3.775-4.72-28.627-51.594-13.213-106.333c15.415-54.739,74.873-95.005,122.063-99.411
	c47.187-4.403,139.991,0.316,170.192,95.008c30.201,94.692-46.352,178.263-98.362,186.655c0,0-48.237,7.445-72.145-24.014
	c0,0-4.092-4.088-5.033,5.35c-0.876,8.774-0.689,62.681-32.512,100.3c20.119,5.801,41.354,8.971,63.34,8.971
	c126.138,0,228.394-102.258,228.394-228.393C668.256,173.566,566,71.311,439.862,71.311z"/>
</svg>
