<?xml version="1.0" encoding="utf-8"?>
<!-- Generator: Adobe Illustrator 16.0.0, SVG Export Plug-In . SVG Version: 6.00 Build 0)  -->
<!DOCTYPE svg PUBLIC "-//W3C//DTD SVG 1.1//EN" "http://www.w3.org/Graphics/SVG/1.1/DTD/svg11.dtd">
<svg version="1.1" id="Layer_1" xmlns="http://www.w3.org/2000/svg" xmlns:xlink="http://www.w3.org/1999/xlink" x="0px" y="0px"
	 width="841.89px" height="595.28px" viewBox="0 0 841.89 595.28" enable-background="new 0 0 841.89 595.28" xml:space="preserve">
<path fill="#FFFFFF" d="M409.379,85.347c-109.553,0-198.367,88.81-198.367,198.367c0,109.554,88.813,198.366,198.367,198.366
	c109.554,0,198.367-88.813,198.367-198.366C607.746,174.156,518.933,85.347,409.379,85.347z M492.441,407.94
	c0,0-34.794,19.126-67.945,17.671c-33.15-1.456-61.199-7.65-72.129-48.089V264.221l-39.439,0.272l0.273-41.258
	c0,0,60.111-16.394,62.844-78.691h42.078c-1.367,1.366,0,65.576,0,65.576h66.121v57.379h-66.668v83.609
	c0,0-0.547,20.766,16.94,19.673l57.925-5.465V407.94z"/>
</svg>
